<svg  xmlns="http://www.w3.org/2000/svg" viewBox="0 0 56 56">
    <path fill="#fff" d="M2.653 11.757s14-5.746 18.855-7.769C23.37 3.18 29.682.59 29.682.59s2.913-1.132 2.67 1.619c-.08 1.133-.728 5.098-1.375 9.387-.971 6.07-2.023 12.705-2.023 12.705s-.162 1.862-1.538 2.185c-1.376.324-3.642-1.132-4.046-1.456-.324-.243-6.07-3.885-8.174-5.665-.566-.486-1.213-1.457.081-2.59 2.914-2.67 6.393-5.988 8.497-8.092.972-.971 1.943-3.237-2.104-.486a690.76 690.76 0 0 1-11.41 7.688s-1.295.81-3.722.081c-2.428-.728-5.26-1.7-5.26-1.7s-1.943-1.213 1.375-2.508Z"/>
</svg>