<?xml version="1.0" encoding="UTF-8"?>
<svg width="71" height="100" version="1.1" viewBox="0 0 71 100" xmlns="http://www.w3.org/2000/svg">
 <path d="m6.4474 91.968-6.4474-72.316h70.846l-6.4543 72.304-29.012 8.0431z" fill="#e44d26"/>
 <path d="m35.423 93.852 23.443-6.4994 5.5156-61.788h-28.959z" fill="#f16529"/>
 <path d="m35.423 52.386h-11.736l-0.8105-9.0823h12.547v-8.8693h-22.24l0.2123 2.3795 2.1799 24.441h19.848z" fill="#ebebeb"/>
 <path d="m35.423 75.42-0.0389 0.0104-9.8777-2.6672-0.6315-7.0736h-8.9033l1.2426 13.926 18.168 5.0436 0.0409-0.0113z" fill="#ebebeb"/>
 <g fill="#120d0e">
  <path d="m6.5915 0h4.5072v4.4531l4.1231 1e-5v-4.4531h4.5074v13.485h-4.5072v-4.5157h-4.1231v4.5157h-4.5072v-13.485z"/>
  <path d="m25.656 4.4719h-3.968v-4.4719h12.445v4.4719h-3.9697v9.0133h-4.5074v-9.0133z"/>
  <path d="m36.109 0h4.6998l2.891 4.7383 2.8881-4.7383h4.7016v13.485h-4.4887v-6.684l-3.101 4.7947h-0.0775l-3.1031-4.7947v6.684h-4.4102z"/>
  <path d="m53.533 0h4.5086v9.0277h6.3384v4.4575h-10.847z"/>
 </g>
 <path d="m35.393 52.386v8.8691h10.922l-1.0295 11.503-9.892 2.6699v9.2273l18.182-5.0392 0.1334-1.4985 2.0842-23.35 0.2164-2.3816h-2.39z" fill="#fff"/>
 <path d="m35.393 34.434v8.8693h21.423l0.1779-1.9935 0.4041-4.4963 0.2122-2.3795z" fill="#fff"/>
</svg>
